<svg id="visual" viewBox="0 0 960 540" width="100%" height="auto" xmlns="http://www.w3.org/2000/svg" xmlns:xlink="http://www.w3.org/1999/xlink" version="1.1"><path d="M0 248L16 254.3C32 260.7 64 273.3 96 280.3C128 287.3 160 288.7 192 285.5C224 282.3 256 274.7 288 261.2C320 247.7 352 228.3 384 230.2C416 232 448 255 480 266.7C512 278.3 544 278.7 576 266.7C608 254.7 640 230.3 672 222.3C704 214.3 736 222.7 768 237.7C800 252.7 832 274.3 864 283.7C896 293 928 290 944 288.5L960 287L960 0L944 0C928 0 896 0 864 0C832 0 800 0 768 0C736 0 704 0 672 0C640 0 608 0 576 0C544 0 512 0 480 0C448 0 416 0 384 0C352 0 320 0 288 0C256 0 224 0 192 0C160 0 128 0 96 0C64 0 32 0 16 0L0 0Z" fill="#93b4fa" opacity="50%" stroke-linecap="round" stroke-linejoin="miter"></path></svg>