<svg id="visual" viewBox="0 0 900 900" width="100%" height="auto" xmlns="http://www.w3.org/2000/svg" xmlns:xlink="http://www.w3.org/1999/xlink" version="1.1"><path d="M0 413L30 429.5C60 446 120 479 180 489.2C240 499.3 300 486.7 360 454.8C420 423 480 372 540 373.5C600 375 660 429 720 448.3C780 467.7 840 452.3 870 444.7L900 437L900 0L870 0C840 0 780 0 720 0C660 0 600 0 540 0C480 0 420 0 360 0C300 0 240 0 180 0C120 0 60 0 30 0L0 0Z" fill="#ffca27" opacity="80%" stroke-linecap="round" stroke-linejoin="miter"></path></svg>