<svg id="visual" viewBox="0 0 675 900" width="100%" height="auto" xmlns="http://www.w3.org/2000/svg" xmlns:xlink="http://www.w3.org/1999/xlink" version="1.1"><path d="M0 444L18.8 462.3C37.7 480.7 75.3 517.3 112.8 523.7C150.3 530 187.7 506 225.2 475C262.7 444 300.3 406 337.8 415.2C375.3 424.3 412.7 480.7 450.2 493.3C487.7 506 525.3 475 562.8 464.2C600.3 453.3 637.7 462.7 656.3 467.3L675 472L675 0L656.3 0C637.7 0 600.3 0 562.8 0C525.3 0 487.7 0 450.2 0C412.7 0 375.3 0 337.8 0C300.3 0 262.7 0 225.2 0C187.7 0 150.3 0 112.8 0C75.3 0 37.7 0 18.8 0L0 0Z" fill="#93b4fa" opacity="50%" stroke-linecap="round" stroke-linejoin="miter"></path></svg>